<?xml version="1.0" encoding="UTF-8"?>
<svg xmlns="http://www.w3.org/2000/svg" xmlns:xlink="http://www.w3.org/1999/xlink" version="1.1" width="512" height="512" x="0" y="0" viewBox="0 0 467.6 467.6" style="enable-background:new 0 0 512 512" xml:space="preserve" class="">
  <g>
    <path d="M209.3 219.916c4.3-3.7 10.4-6.1 18.4-6.7v45.899c-9.8-3.1-16.5-6.699-20.2-9.8-3.7-3.7-5.5-8-5.5-14.1.6-6.099 3-10.999 7.3-15.299zm179.3-147.5c-8-29.4-31.199-40.4-58.1-33L93 103.016h303.6l-8-30.6zm79 106.5v204.4c0 26.3-20.8 47.101-47.1 47.101H47.1c-26.3 0-47.1-20.801-47.1-47.101v-204.4c0-26.3 20.8-47.1 47.1-47.1h373.3c25.8-.001 47.2 21.4 47.2 47.1zM304.8 318.415c0-15.301-4.899-26.899-14.7-35.5-9.8-8.601-24.5-14.699-44.699-19h-.601v-49.601c13.5 1.8 26.3 7.3 37.9 15.3l17.1-24.5c-17.1-11.6-35.5-18.4-55.1-19.6v-13.5h-17.1v12.9c-17.1.6-30.6 6.1-41.6 15.9-10.4 9.8-15.9 22-15.9 37.3s4.9 26.9 14.1 34.3c9.2 8 23.9 14.102 43.5 19v51.4c-15.9-2.4-30.6-10.4-45.9-23.3l-19.6 23.3c19 16.5 41 26.3 64.9 28.8v19.602h17.1v-19c17.699-.602 32.398-6.102 43.5-15.9 11.6-10.3 17.1-22.6 17.1-37.901zm-60-22.6v47.7c8.601-.601 15.3-3.101 20.2-7.3 4.899-4.301 7.3-9.2 7.3-15.301s-1.8-11-5.5-14.699c-4.2-3.699-11-7.3-22-10.4z" fill="#46b1d5" opacity="1" data-original="#000000" class=""/>
  </g>
</svg>
