<?xml version="1.0" encoding="UTF-8"?>
<svg xmlns="http://www.w3.org/2000/svg" xmlns:xlink="http://www.w3.org/1999/xlink" version="1.1" width="512" height="512" x="0" y="0" viewBox="0 0 48 48" style="enable-background:new 0 0 512 512" xml:space="preserve" class="">
  <g>
    <path d="M42 1H6a5.006 5.006 0 0 0-5 5v25a5.006 5.006 0 0 0 5 5h2v8.998a1.978 1.978 0 0 0 1.338 1.887 2.031 2.031 0 0 0 .674.116 1.976 1.976 0 0 0 1.55-.754L19.76 36H42a5.006 5.006 0 0 0 5-5V6a5.006 5.006 0 0 0-5-5zm-31 9h13a1 1 0 0 1 0 2H11a1 1 0 0 1 0-2zm26 14H11a1 1 0 0 1 0-2h26a1 1 0 0 1 0 2zm0-6H11a1 1 0 0 1 0-2h26a1 1 0 0 1 0 2z" fill="#46b1d5" opacity="1" data-original="#000000" class=""/>
  </g>
</svg>
